<svg xmlns="http://www.w3.org/2000/svg" xmlns:xlink="http://www.w3.org/1999/xlink" viewBox="0 0 680 680"><defs><linearGradient id="linear-gradient" x1="339.84" y1="80.25" x2="339.84" y2="621.38" gradientUnits="userSpaceOnUse"><stop offset="0" stop-color="#f7dff5" stop-opacity="0"/><stop offset="1" stop-color="#f7dff5"/></linearGradient><clipPath id="clip-path"><path d="M628.41,222.57H275.28c-4,0-7.26,3.53-7.26,7.88v383c0,4.36,3.25,7.89,7.26,7.89H628.41c4,0,7.26-3.53,7.26-7.89v-383C635.67,226.1,632.42,222.57,628.41,222.57Z" style="fill:none"/></clipPath><clipPath id="clip-path-2"><path d="M280.76,623.19l34.31-124s8.57-40.35,87.55-26.65c37.75,20.8,87.05,0,87.05,0s69.66-12.59,82.75,25.16c20.62,59.64,37,128.91,37,128.91Z" style="fill:none"/></clipPath><clipPath id="clip-path-3"><polygon points="313.36 501.56 354.67 506.31 393.52 505.3 406.84 639.78 304.27 634.88 313.36 501.56" style="fill:none"/></clipPath><clipPath id="clip-path-4"><path d="M477.48,499l10.67,1.61a255.08,255.08,0,0,0,71.32.72h0s27.33,130.43,25,131.6S471.6,638,471.6,638Z" style="fill:none"/></clipPath><clipPath id="clip-path-5"><circle cx="485.8" cy="375.32" r="29.52" style="fill:none"/></clipPath><clipPath id="clip-path-6"><circle cx="381.11" cy="382.4" r="29.52" style="fill:none"/></clipPath></defs><g style="isolation:isolate"><g id="Layer_1" data-name="Layer 1"><path d="M631.33,80.1h-583c-6.63,0-12,4.79-12,10.7V610.54c0,5.9,5.37,10.69,12,10.69h583c6.62,0,12-4.79,12-10.69V90.8C643.32,84.89,638,80.1,631.33,80.1Z" style="fill:none;stroke:#f7dff5;stroke-miterlimit:10;stroke-width:1.04px"/><g style="opacity:0.5"><path d="M631.33,80.25h-583c-6.63,0-12,4.78-12,10.69V610.68c0,5.91,5.37,10.7,12,10.7h583c6.62,0,12-4.79,12-10.7V90.94C643.32,85,638,80.25,631.33,80.25Z" style="opacity:0.6000000000000001;fill:url(#linear-gradient)"/></g><g style="opacity:0.4"><rect x="77.47" y="149.75" width="216.38" height="27.31" style="fill:#f7dff5"/><rect x="77.47" y="205.88" width="216.38" height="27.31" style="fill:#f7dff5"/><rect x="77.47" y="259.05" width="154.59" height="27.31" style="fill:#b2d4ff"/><rect x="77.47" y="412.65" width="154.59" height="27.31" style="fill:#b2d4ff"/><rect x="77.47" y="473.49" width="530.67" height="101.23" style="fill:#b2d4ff"/><rect x="353.89" y="205.88" width="104.84" height="27.31" style="fill:#f7dff5"/><rect x="406.37" y="205.88" width="52.35" height="27.31" style="fill:#e085d3"/><path d="M410.68,385.54h-2.21V332.63H199.2v52.91H197V332.63H77.82v-2H197V310.37h2.2v20.26H408.47V310.31H79.58a2,2,0,0,0-2.11,1.91V384a2,2,0,0,0,2.11,1.91H607.77a2,2,0,0,0,2.1-1.91V332.63H410.68Z" style="fill:#dcf5de"/><path d="M607.77,310.31H410.68v20.32H609.87V312.22A2,2,0,0,0,607.77,310.31Z" style="fill:#dcf5de"/><rect x="77.47" y="258.79" width="51.66" height="27.31" style="fill:#58a3ff"/></g><g style="clip-path:url(#clip-path)"><path d="M416.73,577.42,387.44,415.89s-25.34-92.64,37.21-101.35c44.34-2.37,61-4,81.56,25.34,5.54,11.08,17.42,24.54,1.58,48.3-1.58,6.33,6.34,4,11.88,4.75s45.13,25.34,23.75,59.38c-19.79,33.26-7.12,49.89,22.17,57.81,29.3,8.71,42,32.46,43.55,49.09C465,571.88,416.73,577.42,416.73,577.42Z"/><path d="M487.7,397.77l-9.55,135S457,598.62,400.09,592.2c-24.71-7.93-41.47-40.57-32.5-71.77,22.32-23.07,30-12.53,36.47-86.73C441.42,412.36,487.7,397.77,487.7,397.77Z" style="fill:#c98372"/><path d="M487.7,397.77l-9.55,135S457,598.62,400.09,592.2c-24.71-7.93-41.47-40.57-32.5-71.77,22.32-23.07,30-12.53,36.47-86.73C441.42,412.36,487.7,397.77,487.7,397.77Z" style="fill:#314351;opacity:0.1;mix-blend-mode:multiply"/><path d="M390.92,329.54s-29,119.26,40.14,121c18.94-2,47.75,10.48,64.82-92.07C497.06,310.67,427.49,270.92,390.92,329.54Z" style="fill:#c98372"/><path d="M390.92,329.54s-29,119.26,40.14,121c18.94-2,47.75,10.48,64.82-92.07C497.06,310.67,427.49,270.92,390.92,329.54Z" style="fill:#314351;opacity:0.1;mix-blend-mode:multiply"/><path d="M424.63,412.55s23.47,3.74,35.27-16.47a25.93,25.93,0,0,1,2.6,9.25c1.37,16.07-16.16,27.61-29.9,19.17C427.92,421.63,424.81,417.11,424.63,412.55Z" style="fill:#fffafb"/><path d="M487.7,397.77s-.2.65-.57,1.81c-1.69,5.25-7.07,20.81-14.93,33a40,40,0,0,1-28.33,18c-10.59,1.39-21-.13-27.8-2.73,9.59,5.8,46.82,17.32,69.17-3.41l2.46-46.65" style="fill:#314351;opacity:0.30000000000000004;mix-blend-mode:multiply"/><circle cx="444.73" cy="271.72" r="19.76"/><path d="M510.66,372.8s-11.5,15.74,38.14,26c19.37,6.05,47.21,20.58,17.55,59.93-10.29,13.92-29.06,41.76,27.84,63,13.32,7.87,36.32,23.61,33.3,54.48" style="fill:none;stroke:#000;stroke-miterlimit:10;stroke-width:1.85763437941141px"/><path d="M280.76,623.19l34.31-124s8.57-40.35,87.55-26.65c37.75,20.8,87.05,0,87.05,0s69.66-12.59,82.75,25.16c20.62,59.64,37,128.91,37,128.91Z" style="fill:#ffc74f"/><path d="M357.6,478.31c-3.45,10.91-6.63,21.87-9.38,33-5.29,21.43-9.34,43.15-13.11,64.9-2.72,15.69-5,31.55-6.72,47.5l148.36,1.56c-2.1-2-4.17-4-6.17-6.06A183.28,183.28,0,0,1,454,599.32c-5.38-7.45-10.08-15.38-14.9-23.2-19.27-31.34-39.17-66.27-39.58-104-16-2.56-29.05-2.81-39.61-1.64C359.13,473.07,358.41,475.73,357.6,478.31Z" style="fill:#314351;opacity:0.15;mix-blend-mode:multiply"/><g style="opacity:0.2"><g style="clip-path:url(#clip-path-2)"><path d="M646.43,621.91l-44.36-1c-.14-4.95-.31-9.89-.44-14.83,12,.23,24.07.43,36.11.68a.9.9,0,0,0,0-1.8c-12.06-.25-24.11-.45-36.16-.68-.09-3.32-.21-6.63-.29-9.95,0-.82,0-1.65,0-2.47,8.45.61,16.91,1.2,25.36,1.87,1.15.09,1.14-1.71,0-1.8-8.46-.66-16.93-1.27-25.4-1.88-.12-5.59-.25-11.18-.35-16.77a.9.9,0,0,0-1.8,0c.11,5.54.26,11.09.39,16.64q-7.83-.57-15.67-1.09l.11-24.87c11.92.35,23.84.68,35.77,1.06,1.15,0,1.15-1.76,0-1.79q-17.88-.57-35.76-1.08L584,543.8c5,.23,10,.43,15.07.67,1.15,0,1.15-1.75,0-1.8-5-.23-10-.44-15.07-.66l0-5.92.06-14.45,4,.12c1.15,0,1.15-1.75,0-1.79l-4-.12.06-14.43a.9.9,0,0,0-1.79,0l-.07,14.37c-8.46-.28-16.92-.52-25.38-.77-.1-3.41-.19-6.83-.29-10.24-.1-3.18-.23-6.36-.33-9.54q11.15-.06,22.3-.16a.9.9,0,0,0,0-1.79c-7.46.06-14.91.08-22.37.12q-.41-12.07-.84-24.17c2.22-.24,4.44-.47,6.65-.73,1.13-.14,1.15-1.94,0-1.8-2.23.26-4.47.5-6.71.75,0-.78,0-1.57-.08-2.35,0-1.15-1.84-1.16-1.79,0,0,.85.05,1.7.08,2.55q-8,.87-16,1.6l0-5.72a.9.9,0,0,0-1.8,0c0,2,0,3.92,0,5.88q-10,.9-20,1.58l0-8.25a.9.9,0,0,0-1.8,0q0,4.19,0,8.37-12.16.79-24.35,1.28l0-7.28a.9.9,0,0,0-1.8,0l0,7.35c-5.43.2-10.86.38-16.29.49l-5.62.07,0-4.76a.9.9,0,0,0-1.79,0l0,4.79q-11.3.13-22.58,0c0-.28,0-.56,0-.84a.9.9,0,0,0-1.79,0V477q-11.15-.15-22.27-.57c.06-1.67.11-3.33.17-5,.05-1.16-1.75-1.15-1.79,0-.07,1.64-.12,3.28-.18,4.92q-12-.48-24-1.26.08-5,.14-10a.9.9,0,0,0-1.79,0q-.08,4.93-.14,9.85-4.55-.3-9.07-.64c-6.06-.47-12.12-1-18.17-1.61.09-2.8.16-5.59.26-8.39,0-1.16-1.76-1.16-1.8,0-.09,2.74-.16,5.48-.25,8.22Q345.37,471,330,469c-1.14-.15-1.13,1.65,0,1.8q15.38,2,30.8,3.55c-.22,7.23-.38,14.45-.56,21.68q-13.06-.27-26.13-.58c-.06-7.73-.1-15.47-.19-23.21a.9.9,0,0,0-1.8,0c.1,7.73.14,15.45.2,23.17q-10.62-.26-21.25-.53c-1.16,0-1.16,1.76,0,1.79,7.09.19,14.18.33,21.27.5q.06,9,.09,18-12.33,0-24.66,0,1-16.31,1.76-32.62c.06-1.16-1.74-1.15-1.79,0q-.79,16.31-1.76,32.62c-2.78,0-5.55,0-8.33,0a.9.9,0,0,0,0,1.79l8.22,0c-.37,6.24-.79,12.47-1.19,18.7l-8.61,0a.9.9,0,0,0,0,1.8l8.49,0c-.21,3.25-.39,6.51-.62,9.76-.2,2.9-.43,5.8-.64,8.69l-15.12-.23a.9.9,0,0,0,0,1.79c5,.07,10,.16,15,.24q-.79,10.93-1.65,21.89c-5.77,0-11.53,0-17.29,0a.9.9,0,0,0,0,1.79c5.72,0,11.43,0,17.15,0q-.77,9.81-1.6,19.62l-23.44-.09a.9.9,0,0,0,0,1.8c7.76,0,15.52.06,23.29.08-.26,3-.51,6-.78,9-.18,2.06-.38,4.12-.56,6.19-5.76.24-11.52.5-17.27.82-1.15.07-1.16,1.86,0,1.8q8.55-.48,17.1-.83-1.3,14.25-2.72,28.5c-.11,1.15,1.69,1.14,1.8,0q1.43-14.28,2.7-28.58,15.87-.65,31.77-1-.27,15.15-.62,30.32a.9.9,0,0,0,1.8,0q.38-15.18.61-30.37,13-.26,26-.31c0,1,0,2.06,0,3.08q.29,22.08.86,44.15a.9.9,0,0,0,1.79,0q-.6-23.61-.85-47.24,13.26-.06,26.51,0l-.62,42.51a.9.9,0,0,0,1.79,0l.62-42.5q12.15.09,24.3.27.24,18.35.7,36.7a.9.9,0,0,0,1.8,0c-.32-12.23-.52-24.45-.68-36.68l8,.12c6.34.1,12.68.23,19,.35.41,10.23.82,20.45,1.3,30.67.06,1.15,1.85,1.15,1.8,0q-.72-15.32-1.29-30.63,9.4.18,18.8.36l-.13,24.76a.9.9,0,0,0,1.79,0q.07-12.36.14-24.72l23.31.51.05,13.17a.9.9,0,0,0,1.8,0l-.06-13.13,24.45.57q0,7.85.07,15.71a.9.9,0,0,0,1.8,0l-.07-15.67,20.17.47.09,16.17.28,48a.9.9,0,0,0,1.8,0q-.18-32.05-.37-64.09l19,.44c.14,9.38.28,18.75.37,28.13a.9.9,0,0,0,1.8,0q-.15-14-.37-28.09l7.18.17,15.48.35q-.06,11.41-.1,22.84a.9.9,0,0,0,1.79,0l.1-22.8,16.69.37q.38,12.93.84,25.86.39,10.53.84,21c0,1.16,1.85,1.16,1.8,0-.67-15.61-1.19-31.23-1.66-46.86l44.3,1A.9.9,0,0,0,646.43,621.91Zm-62.67-31.28c5.24.35,10.48.73,15.72,1.11.1,4.17.22,8.34.32,12.52L583.7,604ZM558,561.39q-.22-9.36-.45-18.7,12.3.49,24.61,1L582.1,560v2.07C574.06,561.87,566,561.61,558,561.39Zm24.07,2.52L582,588.72c-7.79-.52-15.58-1.05-23.38-1.53-.05-2.67-.09-5.33-.15-8-.11-5.33-.26-10.66-.39-16Q570.06,563.53,582.08,563.91ZM558.62,589q11.68.72,23.35,1.5l-.06,13.41-23-.41C558.79,598.68,558.72,593.84,558.62,589Zm23.65-67.43-.09,20.35q-12.34-.54-24.67-1-.28-10.07-.57-20.12Q569.6,521.15,582.27,521.58ZM557.1,603.49c-6.27-.11-12.55-.19-18.82-.29,0-1,0-2,0-3q0-6.18-.07-12.38c4.55.26,9.09.49,13.64.76l5,.32C556.93,593.76,557,598.62,557.1,603.49Zm-.83-40.35q.29,12,.53,24-9.31-.57-18.62-1.08L538,562.63l8.83.23Zm0-1.81L538,560.84q0-9.45-.11-18.91,8.93.33,17.86.69Q556,552,556.22,561.33Zm-.51-21.61c0,.37,0,.74,0,1.1q-8.91-.36-17.82-.7-.06-9.95-.11-19.9l17.33.49C555.32,527.05,555.54,533.39,555.71,539.72ZM555.07,519c-5.76-.17-11.52-.37-17.28-.53,0-1,0-2,0-2.94q0-8.07-.1-16.16l16.8-.07C554.69,505.82,554.87,512.39,555.07,519Zm-1.49-45.52q.43,12,.83,24-8.37.06-16.75.1-.06-11.24-.13-22.46C542.89,474.57,548.23,474,553.58,473.44ZM536.49,603.18l-20.16-.31q0-8.13-.08-16.26c6.72.34,13.43.73,20.14,1.1Q536.45,595.45,536.49,603.18Zm-.11-17.27q-10.07-.55-20.14-1.08,0-7.3-.07-14.62c0-2.72,0-5.43,0-8.15l20.12.52Zm-.19-33.22,0,8.11-20.11-.54q0-9.56-.1-19.1,8.26.27,16.51.56l3.59.14Zm-.07-12.63q-10.05-.37-20.09-.7-.06-9.86-.1-19.71l8.39.19,11.68.33ZM536,518.38c-6.69-.19-13.38-.34-20.07-.51L515.86,504l0-4.62h4c5.35,0,10.71,0,16.06-.05Zm-.25-43.15.13,22.3q-10,0-20,0-.06-10.4-.1-20.78Q525.73,476.1,535.74,475.23ZM514.52,599.17c0,1.22,0,2.45,0,3.67-6.06-.08-12.12-.19-18.18-.27l-6.25-.07q0-8.57-.07-17.14,12.21.55,24.43,1.16Zm-.07-14.43c-7.27-.36-14.54-.74-21.82-1.07l-2.61-.11L490,569.13l0-7.76c8.13.2,16.27.43,24.41.64Q514.39,573.38,514.45,584.74Zm-.12-24.53c-8.12-.21-16.24-.44-24.36-.64h-.05l-.08-19.24q12.2.36,24.4.77ZM514.2,533l0,6.33q-12.19-.4-24.4-.76,0-9.74-.08-19.48c8.13.18,16.26.35,24.39.56Zm-.07-15.14q-12.19-.3-24.39-.58,0-6-.05-12l0-5.89q12.19,0,24.38.05Zm-3-40.71,2.8-.2q0,10.33.1,20.66-12.18,0-24.37,0l-.09-19.33Q500.36,477.78,511.13,477.11Zm-45.28,1.74q11-.17,21.93-.57,0,9.63.08,19.25c-4.65,0-9.31,0-14,0-2.72,0-5.44-.05-8.16-.07Q465.8,488.16,465.85,478.85Zm-.18,31.06.06-10.65c7.38,0,14.76,0,22.14.06q0,8.94.07,17.88c-4.49-.1-9-.23-13.48-.32l-8.82-.15Zm0,8.6c7.44.14,14.88.33,22.32.5l.06,14.24,0,5.22-7.49-.22c-5-.15-10-.26-15-.39Zm-.12,21.14q11.26.29,22.53.62,0,9.63.08,19.25L465.4,559Zm-.21,37.46.09-16.32,22.74.54.09,22.16q-11.48-.51-23-.94Zm0,7.24c7.66.3,15.32.59,23,.93,0,4,0,7.92,0,11.88l0,5.32-23.13-.27Zm-1.43-65.87-.1,19.33q-10.8-.28-21.6-.52c-.11-6.39-.24-12.78-.33-19.17C449.15,518.24,456.49,518.34,463.83,518.48Zm-22.05-2.16c0-.68,0-1.37,0-2.06-.06-5.07-.07-10.15-.11-15.23,7.44.07,14.87.16,22.31.21l-.1,17.46Q452.82,516.49,441.78,516.32Zm21.94,23.28q-.06,9.67-.11,19.36l-21.06-.49q-.21-9.69-.39-19.4C449.35,539.23,456.53,539.42,463.72,539.6Zm-.12,21.15-.12,21.72c-6.78-.26-13.56-.48-20.33-.7q-.33-10.74-.56-21.49Zm-20.4,22.81q10.14.33,20.27.72l-.1,17.91L443.83,602C443.62,595.83,443.39,589.7,443.2,583.56Zm20.85-104.7-.1,18.57q-11.16-.07-22.33-.19c0-6.12-.11-12.25-.13-18.37Q452.77,479,464.05,478.86ZM442,602q-13.27-.15-26.56-.27-.06-9.06-.07-18.14c0-.27,0-.54,0-.82l3,.07c7.67.21,15.34.47,23,.72Q441.7,592.72,442,602Zm-.65-20.24q-13-.42-26-.76,0-10.63.11-21.28l2.33.05c7.66.16,15.31.35,23,.52Q441.07,571,441.38,581.71Zm-24-103.45c1,0,2,.09,3.06.12q6.94.24,13.9.37a.89.89,0,1,0,1.29,0l4.1.07c0,6.13.09,12.26.13,18.38-7.7-.07-15.41-.13-23.11-.23Q417,487.63,417.34,478.26Zm-1,33.47q.15-6.47.37-12.93c7.72.1,15.45.14,23.17.22q.07,8.64.18,17.27c-7.94-.13-15.88-.28-23.81-.39C416.23,514.51,416.25,513.12,416.29,511.73Zm-.13,6c7.95.11,15.91.26,23.86.39q.12,9.58.3,19.16-12.26-.27-24.49-.5C415.93,530.4,416,524.05,416.16,517.7Zm-.36,20.83q12.27.22,24.54.51c0,1.66.05,3.32.08,5,.09,4.81.23,9.61.35,14.41l-25.22-.54Q415.64,548.22,415.8,538.53Zm-24.19-61.61q12,.78,23.94,1.26c-.24,6.26-.4,12.52-.59,18.79q-11.82-.17-23.63-.37Q391.47,486.76,391.61,476.92Zm-.45,31.24c0-3.26.09-6.51.14-9.77,7.87.13,15.73.29,23.6.39q-.25,8.55-.46,17.1c-7.8-.1-15.59-.16-23.39-.24C391.09,513.15,391.12,510.65,391.16,508.16Zm-.14,9.27c6.75.07,13.5.11,20.25.19l3.12,0c-.16,6.35-.27,12.7-.38,19.05q-11.64-.21-23.26-.39Zm-.3,20.7q11.63.17,23.25.37c0,1.59-.07,3.18-.09,4.77q-.11,7.29-.16,14.58l-23.28-.45Q390.57,547.76,390.72,538.13Zm-.31,21.06q11.65.22,23.29.45c-.06,7.09-.06,14.17-.07,21.26-7.84-.2-15.68-.4-23.52-.55Zm-.36,25.11,0-2.15q11.78.24,23.55.53,0,9.5.06,19l-23.89-.19ZM362.56,474.57q13.6,1.32,27.26,2.23-.15,9.88-.29,19.77c-6.59-.11-13.18-.18-19.76-.31l-7.8-.16Q362.24,485.33,362.56,474.57Zm-.88,33.94c.07-3.54.16-7.08.25-10.61,9.19.18,18.38.31,27.58.46q-.13,8.64-.26,17.26c-9.23-.09-18.46-.22-27.69-.28C361.6,513.06,361.63,510.78,361.68,508.51Zm-.15,8.64q13.85.11,27.7.27-.14,9.44-.28,18.88-13.18-.18-26.36-.33h-1.31C361.36,529.69,361.41,523.42,361.53,517.15Zm-.27,20.62q13.83.13,27.67.33l-.06,3.65q-.11,7.8-.22,15.61c-9.19-.18-18.38-.38-27.57-.54Q361.16,547.3,361.26,537.77Zm-.2,20.86q13.79.24,27.56.53l-.31,21.16q-13.65-.27-27.31-.45C361,572.79,361,565.71,361.06,558.63ZM361,581.69q13.63.16,27.28.42L388,601.47c-9-.07-18-.16-26.94-.21,0-4.7-.07-9.39-.08-14.09C361,585.35,361,583.52,361,581.69Zm-1.57-43.94c0,1.68-.06,3.36-.08,5q-.06,7-.1,14c-8.36-.15-16.73-.26-25.09-.4q0-9.42,0-18.84Q346.83,537.63,359.43,537.75Zm-25.22-2c0-6.25,0-12.49,0-18.73,8.51,0,17,.05,25.54.11q-.18,9.4-.29,18.81Q346.83,535.83,334.21,535.76Zm26-37.9c-.14,5.82-.25,11.64-.37,17.47q-12.8-.09-25.58-.13c0-1.37,0-2.74,0-4.11,0-4.62-.09-9.23-.12-13.85C342.78,497.45,351.47,497.68,360.16,497.86Zm-26,60.32,25.08.41c0,7.09,0,14.17,0,21.25h-.06c-8.38-.1-16.76-.14-25.14-.19Q334.12,568.91,334.16,558.18ZM334,581.44q12.61.07,25.23.22,0,9.8.06,19.59l-3.6,0c-7.32-.05-14.64-.05-22-.09C333.81,594.57,333.92,588,334,581.44Zm-26.46-62.32.12-2.16c8.26,0,16.51,0,24.77.07q0,9.35,0,18.71-13-.07-26-.08C306.8,530.14,307.18,524.63,307.52,519.12Zm-1.2,18.33q13.06,0,26.12.09v3.84c0,5-.06,10-.08,15l-27.3-.44Q305.71,546.69,306.32,537.45Zm-1.38,20.27,27.41.43q-.06,10.74-.17,21.49-14.43-.09-28.88,0Q304.15,568.66,304.94,557.72Zm-1.95,26c.06-.79.11-1.58.18-2.38q14.49,0,29,.06c-.06,6.57-.16,13.13-.25,19.7q-15.19-.07-30.4-.12C302,595.26,302.53,589.51,303,583.75Zm-3,34.15q.68-7.54,1.34-15.1,15.27,0,30.53.11c0,2.45,0,4.89-.09,7.34,0,2.24-.1,4.47-.13,6.7C321.12,617.17,310.57,617.46,300,617.9Zm33.43-1q.12-7,.23-14l25.6.13c0,4.51.07,9,.12,13.52Q346.43,616.65,333.46,616.92Zm27.77-.37c-.05-4.49-.12-9-.16-13.48,9,0,17.94.13,26.91.19q-.11,6.66-.2,13.33Q374.51,616.5,361.23,616.55Zm28.35.05.19-13.32c8,.06,16,.1,23.93.17,0,3.88.05,7.76.1,11.64,0,.58,0,1.17,0,1.75Q401.7,616.67,389.58,616.6Zm26.07.26c-.06-4.46-.13-8.93-.16-13.4l2.22,0c8.13.07,16.25.18,24.38.27.09,2.68.16,5.37.26,8.06.07,1.84.17,3.68.24,5.53Q429.12,617.07,415.65,616.86Zm28.76.51q-.27-6.79-.51-13.6l19.46.21c0,.9,0,1.8,0,2.7l-.07,11.09Zm20.67.44q0-6.9.08-13.81c7.71.09,15.43.16,23.15.26l.06,14.09Zm38.66.89-13.57-.31-.06-14.11,24.43.36.07,14.31Zm12.67.29q0-7.17-.07-14.32l20.16.3.08,14.47Zm22,.49L538.29,605l18.84.28.09,4.87c0,3.25.08,6.51.13,9.77Zm20.76.47q-.12-7.34-.23-14.65c7.66.13,15.32.29,23,.43l0,8.7q0,3,0,6Zm24.49.55.07-14.74,16.15.3q.2,7.41.41,14.81Z" style="fill:#f28020"/></g></g><path d="M505.06,471.86c-6.58.58-15.39.73-15.39.73s-49.3,20.8-87.05,0a182.65,182.65,0,0,0-18.38-2.25C416.92,500.78,469,494,505.06,471.86Z" style="fill:#c94e00"/><path d="M377.58,345.36s12.1,1.45,24.87,1.6a33.48,33.48,0,0,0,28.05-14.35c1.93-2.83,4.52-6.2,4.72-5.58,2,6.1,7.4,19.32,16.14,21.89,23,6.77,37.65,13.91,46.08,36.38h0l-1.53-23.8s-.72-6.26-.81-11.44a65.19,65.19,0,0,0-11.81-37c-9.07-12.66-24.77-24.65-51.43-23.23C411.66,291.71,380.74,304.65,377.58,345.36Z"/><path d="M421.87,376.36l6.35-5.92s-5.5-7.18-2.45-12.73a118.35,118.35,0,0,0-12,4Z" style="fill:#5b57bf"/><polygon points="446.4 375.18 440.98 370.08 442.34 357.08 454.41 359.9 446.4 375.18" style="fill:#5b57bf"/><path d="M460.53,395.42a14.62,14.62,0,0,1-5,.31c-4.13-.31-7.26-1.79-9.54-5.42-2.09-3.32-3.41-7.19-1.77-11.29,2.39-6.11,11.46-21.71,11.46-21.71s7.46-4.85,15.22-.93c-2.53.93-10.59,5-13.88,11.11C453.26,375,454.12,380.24,460.53,395.42Z" style="fill:#3c327f"/><path d="M408.77,397.84a26.14,26.14,0,0,0,6.9-1.27c2.52-1.32,5.22-2.27,7.65-6.72a12.24,12.24,0,0,0,1.53-6.31,13.39,13.39,0,0,0-1.73-5.79c-4.08-7.1-9.34-17.5-9.34-17.5s-5.39-7.89-18.55-3c3.41,1.75,8,3.82,12.13,9.2a29.26,29.26,0,0,1,6.06,19.24C413.22,389.83,411.64,393.57,408.77,397.84Z" style="fill:#3c327f"/><path d="M462.2,349.93s-11.86-5.7-5.06-15.82c7.28-6.64,35.57-19.33,41.11-21.39,3.48-1.42,8.37-2.06,20.11,9.18a74.23,74.23,0,0,1,19.08,29.76c-13.13,2.43-18.84,1.7-19.21,1.7S501,337.8,484.68,339.75C474.35,341.09,462.2,349.93,462.2,349.93Z" style="fill:#c98372"/><circle cx="381.11" cy="382.4" r="34.73" style="fill:#5b57bf"/><circle cx="485.8" cy="375.32" r="34.73" style="fill:#5b57bf"/><path d="M320.43,378.15s-2.59-15.85,5.95-23.94c7.35-6,26.45-19.2,35.18-25.19a28.37,28.37,0,0,1,17.72-5.13,26.28,26.28,0,0,1,7.76,1.67c10.49,3.91,22.25,8.19,27.79,10.65a14.17,14.17,0,0,1,5.53,4.21c1.73,2.24,3.27,6.35-2.62,6,0,0-33.93-6.07-43.82-6.74-25.17,11.91-39.33,36.41-39.33,36.41Z" style="fill:#c98372"/><path d="M494.6,341.06s-17-4.09-31.2,7.62c-3.4-1.32-11.14-5.1.94-14.35,14-9.06,32.48-17.56,32.48-17.56s4-2.64,11.7,2.84c0,0,24.37,12.12,31.28,40.47a52.92,52.92,0,0,0-21.62,2.55S513.92,348.2,494.6,341.06Z" style="fill:#c98372"/><path d="M494.6,341.06s-17-4.09-31.2,7.62c-3.4-1.32-11.14-5.1.94-14.35,14-9.06,32.48-17.56,32.48-17.56s4-2.64,11.7,2.84c0,0,24.37,12.12,31.28,40.47a52.92,52.92,0,0,0-21.62,2.55S513.92,348.2,494.6,341.06Z" style="fill:#314351;opacity:0.15;mix-blend-mode:multiply"/><path d="M463.4,348.68s-13.26-4.55.94-14.35c10.34-6.18,32.48-17.56,32.48-17.56s4.49-2.43,11.7,2.84c7.69,5.06,13.36,10.34,20.2,18.08" style="fill:none;stroke:#000;stroke-linecap:round;stroke-linejoin:round;stroke-width:0.928817189705704px"/><path d="M325.43,507.43l2.88-66.18-7.67-61s-2.5-18.95,20.61-32.6C358.86,338,386.89,323,389.9,328.49c.88,1.1-3.15,14-19.66,21.3-.49.17-27.08,7.62-23.31,38.77,0,0,5.5,26.62,34.18,28.57,6.25-1.46,10-4.15,14.33-6.66s17.94-10.41,18.3-3.23c.18,7.17-5.21,12-11.31,19-7.71,7.71-15.78,15.6-15.78,15.6s-.24,64.69-1,65.17S329.76,514.7,325.43,507.43Z" style="fill:#c98372"/><path d="M346.93,388.56c-2.1-17.34,5.35-27.66,12.45-33.44a15.83,15.83,0,0,0-8.73,4.83c-3.22,3.4-5.25,8.09-6.54,12.78a68.63,68.63,0,0,0-1.25,28.69c1.51,9,5.4,18.35,14.78,21.18,9.61,2.91,20.71-.51,29.64-4.5A103.44,103.44,0,0,0,401,410.67c2.93-1.88,5.8-3.8,8.8-5.33l1.15-1c-4.3-.35-12.35,4.3-15.48,6.13-4.31,2.51-8.08,5.2-14.33,6.66C352.43,415.18,346.93,388.56,346.93,388.56Z" style="fill:#314351;opacity:0.15;mix-blend-mode:multiply"/><path d="M399.09,423.58c-2.67,2.13-5.33,4.28-7.93,6.49a42.63,42.63,0,0,0-6.77,6.52c-5.59,7.5-5.63,17.62-7.53,26.41a40.31,40.31,0,0,1-5,13.13c-2.72,4.32-6.53,7.6-10.53,10.68A108.76,108.76,0,0,1,334,502c-2.74,1.05-5.58,2-8.47,2.79l-.12,2.63c4.33,7.27,59.54.08,60.26-.4s1-65.17,1-65.17,8.07-7.89,15.78-15.6c4.53-5.2,8.66-9.21,10.41-13.86C408.36,416.24,403.71,419.89,399.09,423.58Z" style="fill:#314351;opacity:0.15;mix-blend-mode:multiply"/><path d="M376.93,326.78s8.54-5.15,21.12,7.85c9.93,10.38,17.79,17.5,20.24,20.59a4.51,4.51,0,0,1,.78,4.41c-.6,1.5-2.19,2.88-6.15,2.38a23.1,23.1,0,0,1-8.62-5.51s-17.92-17.85-44.52-2A80.38,80.38,0,0,1,376.93,326.78Z" style="fill:#c98372"/><path d="M481.2,500.38s-4.33-48.36-6.86-54.5c-2.52-5.77-11.55-23.46-11.55-23.46S444.38,395,455.21,392.1c4.33,0,12.27,6.5,16.61,11.55s16.47,10.44,32.48,1.09c0,0,22.1-13.52,14.59-39.59-3.16-12-12.63-19-24.29-24.09-8.88-8.49-19.94-23.5-13.82-28.44,2.37-1.58,7.5.39,17.77,8.1,10.27,7.9,20.74,16.39,29,23.1s14,16.2,13.83,27.26l-3.5,67.78s.64,38.13,9.93,68.37C489.26,506.28,481.2,500.38,481.2,500.38Z" style="fill:#c98372"/><path d="M516.75,492.53c-16.56-5-26.56-15.65-32.63-31.57-5.27-13.81-7.12-27.52-16.29-39.46-5.31-6.9-13.4-15.11-16-24.15.07,8.8,11,25.07,11,25.07s9,17.69,11.55,23.46c2.53,6.14,6.86,54.5,6.86,54.5s8.06,5.9,66.64,6.85c-1.16-3.76-2.18-7.64-3.08-11.55A82.24,82.24,0,0,1,516.75,492.53Z" style="fill:#314351;opacity:0.15;mix-blend-mode:multiply"/><path d="M514.37,333.16c-5.11-4.09-10.49-8.34-15.82-12.44-.82-.62-1.59-1.18-2.35-1.73C500.71,325.27,507.39,329.33,514.37,333.16Z" style="fill:#314351;opacity:0.15;mix-blend-mode:multiply"/><path d="M465.1,399.77c6.59,9.06,14.33,15,26,14.54,17.46-.68,27-9.52,32.15-19.13,4-7.55,7.11-20.36,4.42-28.62-2.84-8.72-11.07-12.69-18.62-16.84a30,30,0,0,1,9.87,15.43c7.51,26.07-14.59,39.59-14.59,39.59-16,9.35-28.15,4-32.48-1.09a49,49,0,0,0-11.62-9.83A72,72,0,0,1,465.1,399.77Z" style="fill:#314351;opacity:0.15;mix-blend-mode:multiply"/><path d="M494.6,341.06c.89.39,1.76.79,2.62,1.2A47.55,47.55,0,0,0,482.35,326,76.11,76.11,0,0,0,494.6,341.06Z" style="fill:#314351;opacity:0.05;mix-blend-mode:multiply"/><path d="M386.88,466.4s-19.68.3-20.58.41-1.65,14-1.65,14l21.68.22Z" style="fill:#8989e8"/><path d="M327.29,463.67s29.9,3.11,34.95,3.11,14.38-1.34,12.14,9.36c-1.19,4-6.66,4.9-16.46,5.05s-30.4-2.87-31-2.43S327.29,463.67,327.29,463.67Z" style="fill:#5b57bf"/><circle cx="363.16" cy="472.89" r="2.69" style="fill:#314351"/><polygon points="313.36 501.56 354.67 506.31 393.52 505.3 406.84 639.78 304.27 634.88 313.36 501.56" style="fill:#ffc74f"/><path d="M477.48,499l10.67,1.61a255.08,255.08,0,0,0,71.32.72h0s27.33,130.43,25,131.6S471.6,638,471.6,638Z" style="fill:#ffc74f"/><path d="M477.48,499l10.67,1.61a255.08,255.08,0,0,0,71.32.72h0s27.33,130.43,25,131.6S471.6,638,471.6,638Z" style="fill:none"/><circle cx="485.8" cy="375.32" r="29.52"/><circle cx="381.11" cy="382.4" r="29.52"/><path d="M494.28,340s-13.54-11.22-15.09-22.7c-.25-3.74.39-9.15,12.77-1.54,14.7,11,37.92,29.53,37.92,29.53" style="fill:none;stroke:#000;stroke-linecap:round;stroke-linejoin:round;stroke-width:0.928817189705704px"/><path d="M320.83,379.57s.65-21.83,20.42-31.93c13.34-7.22,44.86-25.31,48.65-19.15.38,1.57-.28,10-16.42,19.54" style="fill:none;stroke:#000;stroke-linecap:round;stroke-linejoin:round;stroke-width:0.928817189705704px"/><path d="M384.15,340.92l26.26,4s13.17,3,11.69-2.06a10,10,0,0,0-3.06-4.8" style="fill:none;stroke:#000;stroke-linecap:round;stroke-linejoin:round;stroke-width:0.928817189705704px"/><circle cx="434.39" cy="362.75" r="10.06" style="fill:#3c327f"/><circle cx="434.39" cy="362.75" r="5.7" style="fill:#5b57bf"/><path d="M325.77,502.92l-12.95-1.06s-.33-7.71,13.2-6.73C326,500.29,325.77,502.92,325.77,502.92Z" style="fill:#c94e00"/><path d="M386.06,498.89s8.36.7,8.12,6.27a66.68,66.68,0,0,1-8.35.4Z" style="fill:#c94e00"/><path d="M544.3,494s14.33-2.62,16.12,7.45c0,0-11.33,1.52-14,1.33C544.83,496.89,544.3,494,544.3,494Z" style="fill:#c94e00"/><path d="M480.86,497.52s-4.92-39.83-5.24-48.36c-4.09-8.46-17.87-36.53-21.52-43.94a18.1,18.1,0,0,1-1.78-5.92c-.31-2.75,0-6.1,2.77-7.39" style="fill:none;stroke:#000;stroke-miterlimit:10;stroke-width:0.928817189705704px"/><path d="M407.7,404.58c4.8-1.12,6.88,1.12,6.24,5.29-5.76,13.45-27.29,32-27.29,32l-.82,63.7" style="fill:none;stroke:#000;stroke-miterlimit:10;stroke-width:0.928817189705704px"/><path d="M465.36,256.17s14.95,27.62-14.39,35" style="fill:none;stroke:#000;stroke-linecap:round;stroke-linejoin:round;stroke-width:1.85763437941141px"/><path d="M457.84,288.13c-10.4-3.93-21.71-3.94-32.68-3.84-4.78,0-4.79,7.48,0,7.43,10.36-.09,20.87-.14,30.7,3.57,1.88.71,4.08-.78,4.57-2.59A3.79,3.79,0,0,0,457.84,288.13Z" style="fill:#f08020"/><path d="M443.24,397.61s-3.86,2.1-11.77,3.79a41.71,41.71,0,0,0,2.15-18.73" style="fill:none;stroke:#000;stroke-linecap:round;stroke-linejoin:round;stroke-width:0.928817189705704px"/><g style="opacity:0.30000000000000004"><g style="clip-path:url(#clip-path-3)"><path d="M422.08,628.86l-31.24-1.15q-.54-9.3-1-18.62c2,.1,3.93.17,5.9.27q13.17.69,26.34,1.6c1.2.08,1.19-1.78,0-1.86-10.77-.74-21.55-1.34-32.34-1.86-.29-5.87-.61-11.73-.87-17.59l2.41.14q12.66.84,25.31,2c1.19.11,1.18-1.75,0-1.86q-13.89-1.31-27.8-2.17-.33-7.87-.62-15.76h.37q11.81.29,23.59.78c1.2,0,1.2-1.81,0-1.86-8-.33-16-.57-24-.77q-.33-9.33-.61-18.66,8.37.42,16.72,1c1.19.08,1.19-1.78,0-1.86-5.59-.37-11.18-.68-16.77-1-.16-5.44-.34-10.89-.46-16.33h.47l22.72.83c1.19,0,1.19-1.81,0-1.86l-23.23-.84c-.12-5.79-.2-11.59-.29-17.38l2.78,0,22.72.31a.93.93,0,0,0,0-1.86l-25.54-.35c0-3.57-.14-7.15-.18-10.73a.93.93,0,0,0-1.86,0c0,3.57.12,7.14.18,10.71L370.8,512c0-3,0-6,0-9a.93.93,0,0,0-1.86,0c0,3,0,6,0,9l-15.9-.21q.08-6.14.16-12.28a.93.93,0,0,0-1.86,0q-.09,6.14-.16,12.25l-14.76-.2c0-4.67.07-9.35.13-14a.93.93,0,0,0-1.86,0c-.06,4.67-.08,9.34-.13,14l-2.64,0-13-.18q.09-7.63.19-15.29a.93.93,0,0,0-1.85,0q-.11,7.64-.2,15.27l-7.83-.11a.93.93,0,0,0,0,1.86l7.8.1-.2,15.77-9.59-.35c-1.2,0-1.2,1.82,0,1.86l9.56.35-.23,17.62q-4.9.08-9.8.19a.93.93,0,0,0,0,1.86c3.26-.08,6.52-.1,9.78-.15l-.11,8.4-.15,11.65c-3.51.1-7,.17-10.54.29-1.19,0-1.2,1.9,0,1.86,3.5-.13,7-.2,10.51-.3L316,586.08q-6.9.1-13.82.32c-1.19,0-1.19,1.9,0,1.86,4.6-.15,9.2-.24,13.8-.32q-.12,8.65-.23,17.32-6.78,0-13.56,0a.93.93,0,0,0,0,1.86c4.51,0,9,0,13.54,0l-.18,13.76c0,1.34,0,2.69,0,4l-10.83-.39c-1.19,0-1.19,1.81,0,1.85l10.8.4q-.18,14.7-.38,29.38a.93.93,0,0,0,1.86,0q.19-14.65.38-29.31l18,.66c.16,6.56.29,13.12.48,19.69,0,1.19,1.9,1.19,1.86,0q-.29-9.81-.5-19.62l13.3.49q0,14.29.1,28.58a.93.93,0,0,0,1.86,0c-.06-9.5-.05-19-.07-28.51l17.58.64c.15,6.81.29,13.61.47,20.41a.93.93,0,0,0,1.86,0q-.27-10.17-.48-20.34l17.31.64c.31,5.24.59,10.47.93,15.71.08,1.18,1.94,1.19,1.86,0-.34-5.21-.65-10.43-1-15.64l5.15.19,26,1C423.28,630.77,423.28,628.91,422.08,628.86ZM387,589.54q.38,8.81.84,17.61c-4.17-.2-8.33-.42-12.49-.59l-4-.13c-.08-4.77-.18-9.54-.24-14.3,0-1.15,0-2.29,0-3.44Q379.08,589.05,387,589.54Zm-.08-1.86q-7.92-.49-15.86-.85-.09-7.55-.16-15.09,7.69.09,15.38.26Q386.61,579.85,387,587.68Zm-1.17-30c.13,4.16.31,8.31.46,12.47-5.11-.12-10.22-.24-15.33-.3q-.07-9.51-.11-19c4,.14,8,.27,11.93.45l2.88.15C385.67,553.52,385.71,555.6,385.78,557.69Zm-15-43.8,14,.19c.09,5.78.21,11.55.33,17.33l-14.35-.52Q370.76,522.39,370.79,513.89Zm-.05,18.85,14.39.53c.12,5.43.28,10.86.43,16.3-4.92-.25-9.85-.43-14.77-.6,0-4.65-.05-9.29-.06-13.94C370.73,534.27,370.74,533.51,370.74,532.74ZM353,513.64l15.93.22q0,8.48,0,17l-16.11-.59Zm-.26,20.41c0-.66,0-1.31,0-2l16.14.59c0,5.4,0,10.81,0,16.21q-8.16-.27-16.32-.41C352.66,543.67,352.69,538.86,352.74,534.05Zm-.14,16.3q8.17.15,16.34.41c0,3.12,0,6.23,0,9.34s.06,6.5.09,9.75c-5.52-.06-11.05-.07-16.57-.07C352.53,563.31,352.54,556.83,352.6,550.35Zm-.12,21.31c5.53,0,11.06,0,16.6.05,0,5,.11,10,.17,15q-8.43-.36-16.86-.55Zm-.14,23.81c0-2.46,0-4.93,0-7.4q8.44.2,16.89.53.11,8.89.27,17.77c-5.74-.21-11.47-.42-17.2-.57C352.34,602.36,352.33,598.92,352.34,595.47Zm-16-23.68q7.13-.1,14.26-.14c0,4.84,0,9.67-.06,14.51q-7-.15-14.08-.19Q336.38,578.88,336.33,571.79Zm.15,17c0-.33,0-.67,0-1,4.68,0,9.37.1,14,.2,0,5.91,0,11.82,0,17.73-4.57-.11-9.16-.18-13.74-.26C336.66,600,336.55,594.39,336.48,588.83Zm-.08-75.41,14.74.2c-.07,5.52-.11,11-.17,16.55l-14.72-.54C336.28,524.23,336.35,518.82,336.4,513.42Zm-.16,18.07L351,532q-.09,8.22-.17,16.42c-4.85-.08-9.69-.11-14.54-.12C336.24,542.71,336.22,537.1,336.24,531.49Zm14.52,18.82c0,3.47-.09,6.93-.11,10.39,0,3,0,6,0,9.08-4.76,0-9.53.08-14.29.14q-.06-9.87-.07-19.74Q343.5,550.2,350.76,550.31Zm-31.91-37.13,15.68.21q-.07,8.08-.11,16.17l-4.5-.16L318.65,529Q318.74,521.09,318.85,513.18Zm-.23,18.13v-.46l15.79.57c0,5.63,0,11.26,0,16.89-2.06,0-4.11,0-6.17,0-3.27,0-6.54.05-9.82.09Q318.51,539.85,318.62,531.31Zm-.25,19q8-.1,16-.1c0,1.92,0,3.84,0,5.76,0,4.67.06,9.34.1,14-1.72,0-3.45,0-5.17.06-3.73.07-7.46.2-11.19.3Q318.23,560.3,318.37,550.27Zm-.29,21.88q8.21-.23,16.4-.34.06,7.08.14,14.16c-2.34,0-4.67,0-7,0-3.24,0-6.47.06-9.71.11Zm-.28,21.37c0-1.87.05-3.74.08-5.6q8.37-.12,16.76-.1c.06,5.88.16,11.77.26,17.65-2.09,0-4.18-.09-6.28-.12-3.65,0-7.31-.06-11-.08Zm12.89,32-13.3-.49.24-17.85q8.64,0,17.3.18c0,2.32.05,4.65.1,7,.07,3.78.19,7.57.28,11.35Zm6.46.24q-.19-9.18-.36-18.37c4.07.06,8.14.1,12.21.2l1.49,0c0,4.84,0,9.67,0,14.51,0,1.37,0,2.73,0,4.1Zm15.23.56c0-6.21-.05-12.42,0-18.62q8.61.23,17.22.53c.05,3,.08,6,.14,9,.06,3.25.15,6.5.22,9.75Zm19.39.71q-.19-9.36-.35-18.74c5.51.21,11,.47,16.53.74.08,1.53.14,3.06.22,4.58.25,4.69.56,9.37.84,14.06Z" style="fill:#f28020"/></g></g><g style="opacity:0.30000000000000004"><g style="clip-path:url(#clip-path-4)"><path d="M614.06,630.35q-18.31.36-36.62.94c-.78-4.38-1.58-8.76-2.34-13.14l1.77,0q16.83-.35,33.67-.27a.93.93,0,0,0,0-1.86q-17.88-.08-35.76.34c-.68-4-1.41-8-2.07-11.95l28.43-.6a.93.93,0,0,0,0-1.86l-28.73.61c-.54-3.28-1.1-6.56-1.62-9.84-.07-.42-.13-.84-.19-1.25q14.11.9,28.2,2.25c1.19.11,1.18-1.75,0-1.86q-14.22-1.38-28.49-2.28-1.12-7.12-2.19-14.26l24.2-.17a.93.93,0,0,0,0-1.86l-24.47.17q-1.07-7.27-2.09-14.56,12.11.2,24.21.57c1.19,0,1.19-1.82,0-1.86q-12.24-.4-24.47-.58c-.62-4.44-1.27-8.87-1.85-13.31h1.52q14.48-.2,28.93-.43a.93.93,0,0,0,0-1.86c-10.23.17-20.46.28-30.7.41-.56-4.28-1.12-8.57-1.65-12.85l24.71-.09a.93.93,0,0,0,0-1.86l-24.94.09q-.85-7-1.65-14l7.68,0,27.13.16a.93.93,0,0,0,0-1.86l-35-.2q-1.17-10.27-2.25-20.55c-.12-1.17-2-1.19-1.85,0,.7,6.85,1.46,13.69,2.24,20.54l-11.1-.07h-1.82q-1.49-9.19-3-18.38c-.19-1.18-2-.68-1.79.49q1.46,8.94,2.89,17.88l-13-.08c-.78-8-1.59-15.94-2.33-23.92-.11-1.18-2-1.19-1.86,0,.74,8,1.54,15.94,2.32,23.91l-17.62-.1-2-18.6c-.12-1.18-2-1.19-1.86,0l2,18.59-10.15-.06h-1.24l-2.08-25.52c-.09-1.19-1.95-1.2-1.86,0q1,12.75,2.08,25.51l-10-.05q-.22-12.45-.33-24.88a.93.93,0,0,0-1.86,0q.09,12.44.33,24.86l-12.17-.07a.93.93,0,0,0,0,1.86l12.21.07c.09,4.89.23,9.78.35,14.67l-18.43.06a.93.93,0,0,0,0,1.86l18.47-.07q.18,6.6.38,13.18H471c-.2-3.73-.44-7.46-.62-11.2-.06-1.19-1.92-1.2-1.86,0,.19,3.74.41,7.47.62,11.2h-6a.93.93,0,0,0,0,1.86l6.13,0c.27,4.88.53,9.76.83,14.63q-7.32.4-14.63.89c-1.18.08-1.19,1.93,0,1.86q7.38-.5,14.75-.89.42,6.69.88,13.37l-12.07.09a.93.93,0,0,0,0,1.85L471.2,576c.16,2.38.3,4.76.47,7.14.13,1.91.29,3.82.43,5.73q-7.71.38-15.43.89c-1.19.08-1.2,1.94,0,1.86,5.19-.35,10.38-.64,15.57-.9.35,4.65.69,9.29,1.06,13.94l-16.05.34a.93.93,0,0,0,0,1.86l16.19-.35c.43,5.34.89,10.68,1.35,16-5.84.59-11.69,1.2-17.53,1.87-1.17.14-1.19,2,0,1.86q8.83-1,17.69-1.89c.3,3.46.58,6.91.9,10.37,0,.46.09.91.13,1.37-5.87.37-11.73.71-17.6,1.12-1.18.08-1.19,1.94,0,1.85,5.93-.4,11.85-.75,17.78-1.13q1.2,13,2.52,26c.12,1.18,2,1.19,1.86,0q-1.35-13-2.55-26.11c3.82-.24,7.64-.51,11.47-.73q1.35,17.82,3,35.63c.11,1.18,2,1.19,1.86,0-1.1-11.9-2.06-23.82-3-35.73,4.74-.28,9.48-.52,14.22-.77.14,1.8.29,3.61.44,5.42.09,1.18,1.95,1.19,1.86,0l-.45-5.52c3.9-.21,7.79-.45,11.69-.64l2.78-.12q1.51,14.29,3,28.59c.12,1.18,2,1.19,1.86,0l-3.06-28.67q9.09-.43,18.19-.81c.08.7.16,1.4.25,2.1q2.64,20.85,5.48,41.68c.16,1.17,2,.67,1.79-.5q-3-21.66-5.63-43.37,9.5-.39,19-.71l3.79,23.4c.19,1.18,2,.68,1.79-.49l-3.72-23,11.2-.39q2.24,12.25,4.61,24.47c.23,1.18,2,.68,1.79-.49-1.57-8-3-16-4.49-24l2.08-.07q17.1-.51,34.21-.84A.93.93,0,0,0,614.06,630.35Zm-43.2-26c.65,4,1.34,8,2,12q-5.48.14-11,.31l-1.95-12,9.6-.2Zm-.3-1.85-10.88.23L558,592.52l-.29-1.83c3.28.16,6.57.32,9.85.52l1.16.08C569.33,595,570,598.8,570.56,602.55Zm-71.25-43.1q.58,7.21,1.18,14.44l-12.08.09h-.94c-.21-4.68-.43-9.37-.62-14.05Q493.08,559.66,499.31,559.45Zm-12.53-1.39c-.18-4.62-.4-9.24-.55-13.86l11.84,0,.18,2.22q.45,5.6.91,11.2Q493,557.8,486.78,558.06Zm50.7-1.23c-.92,0-1.85,0-2.78,0q-.71-6.45-1.4-12.91,7.49-.06,15-.14,1.05,6.51,2.11,13Q543.93,556.8,537.48,556.83Zm13.2,1.87,2.4,14.82-12.83.09-3.71,0q-.82-7.46-1.64-14.92Q542.79,558.65,550.68,558.7Zm-16,14.95-17.5.12q-.79-7.38-1.58-14.77c5.81-.12,11.61-.22,17.41-.27.12,1.1.23,2.21.35,3.32C533.78,565.92,534.24,569.78,534.67,573.65Zm8.29-31.6c-3.29,0-6.57,0-9.85.06-.46-4.36-1-8.71-1.39-13.08l14.15,0q1.07,6.51,2.11,13Zm-10.15,14.83q-8.7.07-17.41.27l-1.39-13h.25c5.74,0,11.47-.11,17.2-.16Zm-17.5,16.91-13,.09q-.58-7.25-1.18-14.49l6.73-.22,5.85-.13,0,.21Q514.54,566.51,515.31,573.79ZM501,557.53l-1.08-13.36c4.07,0,8.15,0,12.22,0l1.39,13Q507.29,557.33,501,557.53Zm-.37,18.22q.48,6.06,1,12.11-6.74.1-13.47.31-.31-6.17-.6-12.33Zm1.13,14q.59,7.13,1.16,14.25l-13.87.29c-.08-1.44-.18-2.89-.27-4.33q-.29-5-.54-9.9Q495,589.84,501.77,589.74Zm1.12-9.14c-.13-1.62-.27-3.24-.4-4.87l8.6-.06,4.42,0,1.29,12.12q-6.66,0-13.32.08C503.28,585.43,503.08,583,502.89,580.6Zm9.23,9c1.63,0,3.25,0,4.88,0l1.49,14-13.7.29q-.59-7.12-1.16-14.24C506.46,589.68,509.29,589.63,512.12,589.62Zm5.24-14,17.52-.13c.47,4.19,1,8.36,1.45,12.54q-8.83-.21-17.67-.26Q518,581.71,517.36,575.63Zm19.19,14.27c.51,4.45,1,8.89,1.56,13.34l-17.76.38c-.24-2.19-.47-4.37-.7-6.56q-.4-3.7-.79-7.41Q527.69,589.68,536.55,589.9Zm.19-14.41,16.64-.12,2.16,13.34q-6.06-.29-12.11-.49c-1.75-.06-3.5-.08-5.24-.13C537.71,583.89,537.21,579.69,536.74,575.49Zm19.1,15.1,2,12.23-12.85.27-5.06.11c-.52-4.42-1-8.84-1.51-13.26Q547.12,590.17,555.84,590.59Zm12.61-1.17c-3.68-.23-7.35-.45-11-.63l-2.17-13.43,7.68-.06,3.32,0C567,580,567.71,584.71,568.45,589.42Zm-4.6-30.6q1,7.3,2.12,14.61l-11,.07-2.4-14.79c2.61,0,5.22,0,7.83,0C561.54,558.77,562.7,558.8,563.85,558.82Zm-2.05-15.13q.8,6.16,1.65,12.32c0,.31.09.62.14.94-3.78-.06-7.56-.09-11.34-.11l-2.11-13C554,543.76,557.91,543.74,561.8,543.69Zm-1.88-14.76q.8,6.45,1.63,12.87c-3.9.05-7.8.12-11.71.16l-2.1-13,12.06-.05ZM558,513.11c.54,4.66,1.12,9.31,1.69,14l-12.26,0q-1.12-7-2.27-14.08ZM543.29,513l2.28,14.1-6.4,0-7.64,0c-.47-4.74-.91-9.49-1.38-14.23Zm-12,29.09q-8.73.07-17.46.11-.64-6-1.28-12l-.12-1.09h.34L529.9,529C530.34,533.4,530.82,537.76,531.27,542.12Zm-11.94-29.23,8.95.05q.71,7.13,1.43,14.24l-17.5.07-1.53-14.41Zm-8.78,16.22,1.4,13.14c-4.06,0-8.11.06-12.17.07q-.54-6.59-1.07-13.17Zm-1.73-16.28,1.54,14.42-11.8,0-.63-7.71-.55-6.82Zm-10.9,29.5c-2,0-3.91,0-5.87,0h-5.87q-.23-6.6-.41-13.18l11.08,0Q497.39,535.74,497.92,542.33Zm-2.4-29.58q.59,7.28,1.18,14.55l-4.58,0-6.4,0a2.71,2.71,0,0,1,0-.29c-.12-4.78-.21-9.57-.3-14.36Zm-24.4,31.49,13.25,0q.22,7,.5,13.93-6.47.29-12.94.64C471.64,553.94,471.39,549.09,471.12,544.24Zm.92,16.4q6.45-.35,12.91-.63.29,7,.62,14l-12.63.09C472.64,569.61,472.31,565.12,472,560.64Zm1,15.3,12.6-.09c.19,4.14.45,8.26.67,12.39-4.13.14-8.26.32-12.39.51C473.63,584.49,473.35,580.21,473.06,575.94Zm1,14.67c4.11-.19,8.22-.37,12.34-.51.25,4.74.54,9.48.82,14.22l-12.09.26Q474.61,597.59,474.09,590.61Zm1.66,21.52c-.16-1.9-.29-3.8-.44-5.7l12.05-.25q.45,7.5.95,15c-3.89.35-7.78.74-11.67,1.12C476.34,618.92,476,615.53,475.75,612.13ZM477.83,636c-.36-3.94-.69-7.87-1-11.81,3.88-.38,7.76-.77,11.64-1.12q.29,4.37.6,8.71c.09,1.16.19,2.33.27,3.49C485.48,635.46,481.66,635.72,477.83,636Zm11.35-29.82,13.9-.3c0,.53.09,1,.13,1.57q.51,6.23,1,12.44c-4.49.35-9,.71-13.46,1.11l-.6.06Q489.65,613.58,489.18,606.14ZM492.54,635l-1.34.08c-.31-4.08-.64-8.15-.92-12.23q7-.63,14.09-1.18l1,12.65C501.11,634.58,496.82,634.78,492.54,635Zm12.4-29.23,8.47-.18,5.28-.11q.7,6.6,1.4,13.2-7,.45-14,1Q505.5,612.76,504.94,605.8Zm2.31,28.45q-.53-6.35-1-12.69c3.58-.27,7.16-.55,10.75-.79l3.32-.21q.3,2.78.59,5.55l.79,7.37C516.86,633.72,512.05,634,507.25,634.25Zm13.29-28.78,17.79-.38c.49,4.17,1,8.33,1.52,12.49q-9,.45-17.91,1Q521.24,612,520.54,605.47Zm3,27.92-1.38-12.94q9-.57,17.93-1,.79,6.59,1.6,13.18C535.62,632.86,529.57,633.1,523.52,633.39Zm18.16-15.89c-.51-4.15-1-8.3-1.54-12.45l18-.38,2,12.06c-3.16.11-6.32.21-9.48.34C547.62,617.2,544.65,617.35,541.68,617.5Zm11.6,14.6-9.72.42c-.55-4.39-1.12-8.78-1.66-13.18q9.24-.45,18.46-.77l.38,2.34q.88,5.45,1.76,10.88Zm11.08-.37-2.14-13.23c3.66-.12,7.31-.21,11-.3.17,1,.33,2,.5,3,.6,3.39,1.23,6.78,1.84,10.18C571.81,631.47,568.09,631.6,564.36,631.73Z" style="fill:#f28020"/></g></g><path d="M321.05,502.44l-7.69-.88-9.09,133.32,26.14,1.25C323.31,592,321.17,547,321.05,502.44Z" style="fill:#314351;opacity:0.15;mix-blend-mode:multiply"/><path d="M312.82,501.86s52.91,6.68,80.63,3.33" style="fill:none;stroke:#c94e00;stroke-miterlimit:10;stroke-width:1.85763437941141px"/><line x1="313.7" y1="501.52" x2="304.27" y2="634.88" style="fill:none;stroke:#c94e00;stroke-linecap:round;stroke-linejoin:round;stroke-width:1.85763437941141px"/><line x1="393.2" y1="504.23" x2="406.84" y2="639.78" style="fill:none;stroke:#c94e00;stroke-linecap:round;stroke-linejoin:round;stroke-width:1.85763437941141px"/><path d="M494.73,599.78c-.57-32.95-6.13-66-4.92-98.93-.55-.08-1.11-.14-1.66-.23L477.48,499,471.6,638l23.57-.86C495.05,624.7,494.94,612.24,494.73,599.78Z" style="fill:#314351;opacity:0.15;mix-blend-mode:multiply"/><path d="M472,634.91,477.48,499s57.77,8,82,2.33" style="fill:none;stroke:#c94e00;stroke-linecap:round;stroke-linejoin:round;stroke-width:1.85763437941141px"/><line x1="559.47" y1="501.34" x2="584.46" y2="632.94" style="fill:none;stroke:#c94e00;stroke-linecap:round;stroke-linejoin:round;stroke-width:1.85763437941141px"/><path d="M327.29,463.67s27.08,3.33,41.84,2.92c4.25.41,6.67,4.05,5.66,8.29,0,0,.61,7.28-18.4,6.27s-29.46-2.39-29.46-2.39" style="fill:none;stroke:#494399;stroke-linecap:round;stroke-linejoin:round;stroke-width:0.928817189705704px"/><path d="M326.21,487.11s-7.67,3-10.55-4a7.55,7.55,0,0,1-.55-3c.12-9.21-.18-16.67.95-20.42.82-2.74,4.71-6.73,8.61-6.15a8.27,8.27,0,0,1,3.2.8A292,292,0,0,1,326.21,487.11Z" style="fill:#8989e8"/><path d="M318.13,455.9s1.87-3,2.06,4.18.94,26.31-3.32,25.17c-1.13-1.42-1.79-1.61-2-6.15.07-4.5.39-13.13.55-17.11.07-1.81.57-2.2,1.24-3.88A8.18,8.18,0,0,1,318.13,455.9Z" style="fill:#5b57bf"/><path d="M327.6,454.24l.27.12-1.66,32.75-.44.18A7.68,7.68,0,0,1,315.61,481a77,77,0,0,1,.22-20A8.56,8.56,0,0,1,327.6,454.24Z" style="fill:none;stroke:#494399;stroke-linecap:round;stroke-linejoin:round;stroke-width:0.928817189705704px"/><path d="M370.36,466.6c.27.09,15.55-.1,15.55-.1" style="fill:none;stroke:#494399;stroke-linecap:round;stroke-linejoin:round;stroke-width:0.928817189705704px"/><line x1="368.48" y1="480.6" x2="386.33" y2="481.04" style="fill:none;stroke:#494399;stroke-linecap:round;stroke-linejoin:round;stroke-width:0.928817189705704px"/><path d="M512.13,367.92a.8.8,0,0,0-.19-.3.67.67,0,0,0-.3-.19.73.73,0,0,0-.36-.08l-.24,0a1,1,0,0,0-.41.24l-.15.19a1,1,0,0,0-.13.47v.22a.86.86,0,0,0,.08.36.75.75,0,0,0,.2.3.7.7,0,0,0,.29.19.66.66,0,0,0,.36.08l.25,0a1.06,1.06,0,0,0,.41-.24l.14-.19a.85.85,0,0,0,.13-.47v-.22A.64.64,0,0,0,512.13,367.92Z" style="fill:#ffc74f"/><path d="M501.83,397a.62.62,0,0,0,0,1.24A.62.62,0,0,0,501.83,397Z" style="fill:#ffc74f"/><path d="M470.89,352.89a.62.62,0,0,0,0,1.23A.62.62,0,0,0,470.89,352.89Z" style="fill:#c22c8c"/><path d="M485.36,360.8a.62.62,0,0,0,0,1.24A.62.62,0,0,0,485.36,360.8Z" style="fill:#ffc74f"/><path d="M466.41,382.7a.62.62,0,0,0,0,1.24A.62.62,0,0,0,466.41,382.7Z" style="fill:#ffc74f"/><path d="M373.4,358.31a.62.62,0,0,0,0,1.24A.62.62,0,0,0,373.4,358.31Z" style="fill:#c22c8c"/><path d="M358.35,387.92a.62.62,0,0,0,0,1.23A.62.62,0,0,0,358.35,387.92Z" style="fill:#c22c8c"/><path d="M406.08,379.18a.74.74,0,0,0,0,1.48A.74.74,0,0,0,406.08,379.18Z" style="fill:#ffc74f"/><path d="M384.43,403.41a.62.62,0,0,0,0,1.24A.62.62,0,0,0,384.43,403.41Z" style="fill:#ffc74f"/><path d="M384.56,381.12a.62.62,0,0,0,0,1.24A.62.62,0,0,0,384.56,381.12Z" style="fill:#0565ff"/><g style="clip-path:url(#clip-path-5)"><rect x="494.92" y="386.3" width="6.16" height="6.16" transform="translate(-88.21 625.97) rotate(-60)" style="fill:#ffbf4f"/><rect x="474.14" y="393.16" width="5.06" height="5.06" transform="translate(-29.11 37.95) rotate(-4.42)" style="fill:#ffbf4f"/><rect x="492.6" y="345.84" width="3.41" height="3.41" transform="matrix(1, -0.08, 0.08, 1, -25.34, 39.17)" style="fill:#f28020"/><circle cx="477.04" cy="384.81" r="2.72" style="fill:#ff8580"/><circle cx="485.24" cy="354.71" r="2.9" style="fill:#c42c8e"/><circle cx="457.06" cy="379.9" r="2.72" style="fill:#f28020"/><polygon points="495.64 376.33 497.4 367.76 489.11 370.53 495.64 376.33" style="fill:#ff8580"/><polygon points="460.85 364.11 458.44 370.39 465.08 369.34 460.85 364.11" style="fill:#0565ff"/><rect x="466.69" y="370.34" width="16.98" height="1.93" transform="translate(1075.22 431.42) rotate(147.72)" style="fill:#c42c8e"/><rect x="501.59" y="370.94" width="16.98" height="1.93" transform="translate(1139.95 413.9) rotate(147.72)" style="fill:#f28020"/><circle cx="468.55" cy="350.55" r="1.66" style="fill:#4a9e47"/><circle cx="483.72" cy="372.75" r="27.74" style="fill:none"/></g><g style="clip-path:url(#clip-path-6)"><rect x="371.97" y="401.62" width="6.68" height="6.68" transform="translate(-91.88 699.21) rotate(-79.38)" style="fill:#c42c8e"/><rect x="351.84" y="384.76" width="6.04" height="6.04" transform="translate(474.52 -124.06) rotate(55.62)" style="fill:#ffbf4f"/><rect x="408.82" y="379.31" width="3.53" height="3.53" transform="translate(493.23 -172.97) rotate(55.62)" style="fill:#f28020"/><circle cx="397.23" cy="389.77" r="2.13" style="fill:#0565ff"/><circle cx="388.86" cy="410.9" r="1.42" style="fill:#4a9e47"/><circle cx="362.32" cy="364.4" r="2.82" style="fill:#f28020"/><polygon points="368.9 378.64 369.51 386.56 376.06 382.07 368.9 378.64" style="fill:#ff8580"/><polygon points="378.43 359.63 371.56 360.71 375.93 366.12 378.43 359.63" style="fill:#0565ff"/><rect x="389.38" y="370.7" width="17.58" height="2" transform="translate(577.37 886.08) rotate(-152.24)" style="fill:#c42c8e"/><rect x="384.66" y="398.08" width="8.31" height="0.95" transform="translate(547.22 932.34) rotate(-152.24)" style="fill:#ffc44f"/><circle cx="394.57" cy="359.52" r="1.72" style="fill:#4a9e47"/><circle cx="382.51" cy="384.6" r="28.71" style="fill:none"/></g><path d="M408.29,344.75l9.44,9.7a5.24,5.24,0,0,1,1.44,4.91,3.41,3.41,0,0,1-2.25,2.15c-2.68.69-5.46.29-10.79-3.56" style="fill:none;stroke:#000;stroke-linecap:round;stroke-linejoin:round;stroke-width:0.928817189705704px"/></g><g style="opacity:0.5"><circle cx="83.46" cy="111.26" r="5.36" style="fill:#e085d3;opacity:0.6000000000000001"/><circle cx="103.08" cy="111.42" r="5.36" style="fill:#e085d3;opacity:0.6000000000000001"/><circle cx="122.7" cy="111.26" r="5.36" style="fill:#e085d3;opacity:0.6000000000000001"/></g><path d="M433.39,209.72a4.52,4.52,0,0,0-4.52,4.52v3.33h2.24v-3.33a2.28,2.28,0,0,1,4.56,0v3.33h2.25v-3.33A4.52,4.52,0,0,0,433.39,209.72Z" style="fill:#fff"/><path d="M426.63,218.69v10.17h13.53V218.69ZM434,223.9v1.84h-1.13V223.9a1.13,1.13,0,1,1,1.13,0Z" style="fill:#fff"/><rect x="347.36" y="150.68" width="216.38" height="27.31" style="fill:none;stroke:#7dcc7a;stroke-miterlimit:10;stroke-width:1.04px;opacity:0.8"/><rect x="333.64" y="111.43" width="221" height="55.37" style="fill:#dcf5de"/><line x1="333.78" y1="139.44" x2="554.62" y2="139.44" style="fill:none;stroke:#fff;stroke-miterlimit:10;stroke-width:1.15426903311125px"/><line x1="346.93" y1="125.4" x2="373.6" y2="125.4" style="fill:none;stroke:#7dcc7a;stroke-linecap:round;stroke-linejoin:round;stroke-width:1.94105561585624px"/><line x1="346.93" y1="153.27" x2="373.6" y2="153.27" style="fill:none;stroke:#7dcc7a;stroke-linecap:round;stroke-linejoin:round;stroke-width:1.94105561585624px"/><rect x="392.78" y="122.56" width="5.48" height="5.68" style="fill:#7dcc7a"/><rect x="392.78" y="150.43" width="5.48" height="5.68" style="fill:#7dcc7a"/><path d="M407.6,125.4c.68.72,118,0,118,0" style="fill:none;stroke:#7dcc7a;stroke-linecap:round;stroke-linejoin:round;stroke-width:2.1047061397737px"/><line x1="407.6" y1="153.27" x2="455.76" y2="153.27" style="fill:none;stroke:#7dcc7a;stroke-linecap:round;stroke-linejoin:round;stroke-width:2.1047061397737px"/></g></g></svg>